# xmcd CD database file
#
# Track frame offsets:
#	150
#	21310
#	43678
#	65206
#	98977
#	125572
#	153840
#	186962
#	207566
#	227123
#	245372
#	263815
#
# Disc length: 4003 seconds
#
# Revision: 0
# Processed by: cddbd v1.5.2PL0 Copyright (c) Steve Scherf et al.
# Submitted via: CDex 1.70beta2
#
DISCID=af0fa10c
DTITLE=Erik Lindeborg Trio - Time
DYEAR=2010
DGENRE=Jazz
TTITLE0=In The Light Of Tomorrow
TTITLE1=We Know Time
TTITLE2=Six Seconds Until I See You Again
TTITLE3=Traveller
TTITLE4=Space Elevator
TTITLE5=Big Bang
TTITLE6=First Show
TTITLE7=White Dwarf
TTITLE8=Timeless
TTITLE9=Tour De France
TTITLE10=Doctor's Prescription
TTITLE11=Light Years Away
EXTD=YEAR: 2010
EXTT0=
EXTT1=
EXTT2=
EXTT3=
EXTT4=
EXTT5=
EXTT6=
EXTT7=
EXTT8=
EXTT9=
EXTT10=
EXTT11=
PLAYORDER=
